<svg width="276" height="120" viewBox="0 0 276 120" fill="none" xmlns="http://www.w3.org/2000/svg">
<g clip-path="url(#clip0_57_977)">
<path d="M136.466 48.0479V51.059C136.466 52.6107 135.035 53.7745 133.51 53.4605C131.335 53.0171 128.955 52.6292 126.371 52.2782H126.352C122.541 51.7979 118.729 51.5393 114.918 51.5393C113.338 51.5393 111.757 51.5947 110.214 51.6871C108.894 51.7794 107.741 50.7634 107.63 49.4519C107.556 48.4358 107.444 47.4198 107.314 46.4223C107.128 44.9999 108.206 43.7253 109.656 43.6514C111.107 43.5775 112.706 43.5405 114.267 43.5405C116.424 43.5405 118.562 43.5959 120.719 43.7253C122.448 43.8361 124.14 43.9654 125.757 44.1501C126.129 44.1871 126.501 44.2425 126.873 44.2794C128.825 44.5196 130.628 44.7967 132.283 45.1292C133.138 45.2955 133.919 45.4802 134.644 45.6649C135.723 45.942 136.466 46.9211 136.466 48.0294V48.0479Z" fill="white"/>
<path d="M91.6963 54.3656L90.2462 56.5639C88.6101 57.3398 87.0855 58.2265 85.6353 59.1871C81.7682 61.7733 78.7005 64.9876 76.395 68.8669C74.1082 72.7277 72.9555 77.272 72.9555 82.4999C72.9555 84.0701 73.0484 85.5664 73.2344 86.9888C73.3645 87.9494 72.8811 88.91 72.0259 89.3903C69.8878 90.5725 67.601 91.6255 65.1468 92.5307C63.6966 93.0664 62.0977 92.2351 61.8002 90.7203C61.3354 88.4112 61.1123 85.9913 61.1123 83.4605C61.1123 79.9876 61.5213 76.6994 62.3394 73.5959C62.9343 71.3238 63.7524 69.144 64.7935 67.0565C66.8201 63.0294 69.5717 59.4826 73.067 56.4531C73.8479 55.7326 74.6474 55.0676 75.5026 54.4395C79.1281 51.724 83.3671 49.4888 88.201 47.7523C89.7442 47.1981 91.4361 48.2326 91.5662 49.8582C91.6778 51.3176 91.7335 52.7954 91.7335 54.3472L91.6963 54.3656Z" fill="#21384E"/>
<path d="M140.78 83.1465V114.606C140.78 115.696 140.055 116.638 139.013 116.933C138.233 117.155 137.322 117.377 136.28 117.598C134.291 118.023 132.041 118.411 129.494 118.781C126.966 119.15 124.233 119.446 121.332 119.667C118.432 119.889 115.569 120 112.724 120C104.339 120 96.9209 119.132 90.5066 117.414C89.5398 117.155 88.573 116.878 87.662 116.564C82.4748 114.92 78.0499 112.759 74.3501 110.08C73.1416 109.193 72.0074 108.27 70.9663 107.272C69.6834 106.053 70.1854 103.91 71.8401 103.3C73.6807 102.635 75.447 101.897 77.1389 101.121C78.1057 100.677 79.2584 100.825 79.9835 101.582C81.1548 102.802 82.4562 103.91 83.8878 104.908C87.3831 107.328 91.6035 109.119 96.5862 110.283C96.9581 110.376 97.3299 110.449 97.7203 110.523C102.387 111.521 107.537 112.001 113.17 112.001C115.978 112.001 118.767 111.89 121.518 111.687C123.396 111.539 125.144 111.336 126.743 111.096C127.933 110.911 128.825 109.895 128.825 108.695V91.2376C128.825 89.9076 127.728 88.8177 126.389 88.8177H108.913C107.574 88.8177 106.477 87.7278 106.477 86.3977V83.1465C106.477 81.8165 107.574 80.7266 108.913 80.7266H138.326C139.664 80.7266 140.761 81.8165 140.761 83.1465H140.78Z" fill="white"/>
<path d="M97.5157 22.9803C98.594 24.3103 97.8875 26.3054 96.1956 26.601C93.1279 27.1367 90.1532 27.8202 87.2714 28.633C86.1931 28.947 85.1333 29.2611 84.0921 29.6121C83.8319 29.2611 83.5344 28.9101 83.2369 28.5591C77.5849 22.0382 69.4973 17.42 58.937 14.686C54.9211 13.6515 50.4032 12.9495 45.4391 12.58C40.475 12.1921 34.8602 12.0074 28.6133 12.0074H18.462C17.2163 12.0074 16.2123 13.0049 16.2123 14.2426V94.9323C16.2123 96.17 17.2163 97.1675 18.462 97.1675H28.6133C33.5588 97.1675 38.1138 97.0567 42.2785 96.798C43.3568 96.7426 44.2864 97.4261 44.5839 98.4606C45.402 101.324 46.4989 104.095 47.8189 106.755C48.0978 107.309 48.3767 107.845 48.6742 108.381C48.1164 108.454 47.54 108.51 46.9637 108.547C41.7951 108.972 36.1803 109.175 30.1564 109.175H2.24965C1.00397 109.175 0 108.177 0 106.94V2.23522C0 0.997537 1.00397 0 2.24965 0H30.4353C36.4591 0 42.074 0.203202 47.2426 0.628079C52.4112 1.03448 57.2265 1.75493 61.6701 2.78941C69.423 4.58128 76.1905 7.07512 82.0098 10.2894C87.8106 13.5037 92.6073 17.2906 96.4187 21.6687C96.7906 22.0936 97.1624 22.5369 97.5157 22.9803Z" fill="#21384E"/>
<path d="M274.364 73.9101C273.267 70.4556 271.631 67.3337 269.437 64.5628C267.243 61.7918 264.473 59.3904 261.145 57.3583C257.798 55.3263 253.912 53.7376 249.45 52.6108C246.885 51.9642 244.114 51.484 241.14 51.2253C238.165 50.9667 234.949 50.8374 231.472 50.8374H217.825C215.687 50.8374 213.958 52.5554 213.958 54.6798V116.176C213.958 118.3 215.687 120.018 217.825 120.018H231.304C234.781 120.018 237.998 119.889 240.972 119.631C243.947 119.353 246.717 118.91 249.264 118.245C253.727 117.1 257.631 115.511 260.977 113.442C264.305 111.373 267.094 108.916 269.325 106.071C271.556 103.227 273.23 100.049 274.327 96.484C275.442 92.9372 276 89.1502 276 85.1046C276 81.0591 275.442 77.383 274.364 73.9101ZM261.851 101.638C259.267 105.055 255.809 107.66 251.458 109.433C250.324 109.914 249.134 110.339 247.87 110.69C245.565 111.336 242.962 111.78 240.117 112.038C237.254 112.278 234.019 112.389 230.431 112.389H227.158C225.02 112.389 223.291 110.671 223.291 108.547V91.8288C223.291 90.0184 224.537 88.3374 226.34 88.0788C226.526 88.0603 226.731 88.0418 226.935 88.0418H248.837C249.878 88.0418 250.808 87.6539 251.477 87.0443C252.146 86.4347 252.574 85.6034 252.574 84.6613C252.574 82.7771 250.901 81.2623 248.837 81.2623H226.935C226.731 81.2623 226.545 81.2623 226.34 81.2253C224.537 80.9667 223.291 79.2857 223.291 77.4753V62.2721C223.291 60.1477 225.02 58.4298 227.158 58.4298H230.431C234.019 58.4298 237.254 58.5591 240.117 58.7992C242.962 59.0394 245.565 59.4827 247.87 60.1477C249.134 60.4987 250.343 60.9236 251.477 61.4039C255.827 63.1404 259.267 65.6527 261.851 68.9224C265.105 73.0603 266.722 78.4544 266.722 85.1046C266.722 91.7549 265.105 97.3522 261.851 101.656V101.638Z" fill="white"/>
<path d="M196.63 66.3177C195.775 66.3177 195.087 67.0012 195.087 67.8509V92.9556C195.087 94.2303 195.013 95.5603 194.882 96.9273C194.734 98.3128 194.492 99.5505 194.157 100.659C193.637 102.451 192.893 104.095 191.926 105.554C190.96 107.032 189.751 108.288 188.301 109.341C186.851 110.394 185.14 111.207 183.207 111.78C181.254 112.352 179.005 112.648 176.495 112.648C171.865 112.648 168.147 111.687 165.34 109.803C162.514 107.9 160.506 105.314 159.297 102.044C159.204 101.786 159.111 101.527 159.037 101.25C158.684 100.142 158.423 98.9408 158.237 97.6477C158.014 96.0406 157.903 94.4704 157.903 92.9556V55.0308C157.903 53.8854 157.419 52.8325 156.657 52.0751C156.136 51.5394 155.467 51.1514 154.723 50.9667C154.389 50.8743 154.036 50.8374 153.682 50.8374C151.34 50.8374 149.462 52.7216 149.462 55.0308V92.7524C149.462 94.5812 149.573 96.447 149.797 98.3867C150.02 100.308 150.392 102.118 150.912 103.818C151.637 106.145 152.66 108.307 153.961 110.283C155.281 112.26 156.955 113.959 159.018 115.4C159.018 115.4 159.037 115.4 159.037 115.419C161.082 116.841 163.518 117.968 166.399 118.781C169.263 119.594 172.591 120 176.383 120C180.362 120 183.82 119.557 186.776 118.67C189.732 117.802 192.261 116.582 194.362 115.031C196.463 113.461 198.173 111.632 199.493 109.489C200.795 107.364 201.78 105.055 202.431 102.543C202.821 101.047 203.1 99.4396 203.268 97.7216C203.435 96.0037 203.528 94.3411 203.528 92.7524V67.8509C203.528 67.0012 202.84 66.3177 201.985 66.3177H196.63Z" fill="white"/>
<path d="M201.985 51.0591H196.649C195.796 51.0591 195.105 51.7455 195.105 52.5923V58.4667C195.105 59.3135 195.796 60 196.649 60H201.985C202.837 60 203.528 59.3135 203.528 58.4667V52.5923C203.528 51.7455 202.837 51.0591 201.985 51.0591Z" fill="white"/>
</g>
<defs>
<clipPath id="clip0_57_977">
<rect width="276" height="120" fill="white"/>
</clipPath>
</defs>
</svg>
